<?xml version="1.0" encoding="UTF-8" standalone="no"?>
<!DOCTYPE svg PUBLIC "-//W3C//DTD SVG 1.1//EN"
 "http://www.w3.org/Graphics/SVG/1.1/DTD/svg11.dtd">
<!-- Generated by graphviz version 2.43.0 (0)
 -->
<!-- Title: G Pages: 1 -->
<svg width="357pt" height="255pt"
 viewBox="0.00 0.00 357.02 255.06" xmlns="http://www.w3.org/2000/svg" xmlns:xlink="http://www.w3.org/1999/xlink">
<g id="graph0" class="graph" transform="scale(1 1) rotate(0) translate(4 251.06)">
<title>G</title>
<polygon fill="white" stroke="transparent" points="-4,4 -4,-251.06 353.02,-251.06 353.02,4 -4,4"/>
<!-- board.cache_hierarchy.ruby_system.network.xbar -->
<g id="node1" class="node">
<title>board.cache_hierarchy.ruby_system.network.xbar</title>
<path fill="#cce6fc" stroke="#000000" d="M117.39,-70.12C117.39,-70.12 147.39,-70.12 147.39,-70.12 153.39,-70.12 159.39,-76.12 159.39,-82.12 159.39,-82.12 159.39,-94.12 159.39,-94.12 159.39,-100.12 153.39,-106.12 147.39,-106.12 147.39,-106.12 117.39,-106.12 117.39,-106.12 111.39,-106.12 105.39,-100.12 105.39,-94.12 105.39,-94.12 105.39,-82.12 105.39,-82.12 105.39,-76.12 111.39,-70.12 117.39,-70.12"/>
<text text-anchor="middle" x="132.39" y="-84.42" font-family="Arial" font-size="14.00" fill="#000000">R 0</text>
</g>
<!-- board.cache_hierarchy.ruby_system.network.l1_switch_0 -->
<g id="node2" class="node">
<title>board.cache_hierarchy.ruby_system.network.l1_switch_0</title>
<path fill="#cce6fc" stroke="#000000" d="M239.43,-149.82C239.43,-149.82 269.43,-149.82 269.43,-149.82 275.43,-149.82 281.43,-155.82 281.43,-161.82 281.43,-161.82 281.43,-173.82 281.43,-173.82 281.43,-179.82 275.43,-185.82 269.43,-185.82 269.43,-185.82 239.43,-185.82 239.43,-185.82 233.43,-185.82 227.43,-179.82 227.43,-173.82 227.43,-173.82 227.43,-161.82 227.43,-161.82 227.43,-155.82 233.43,-149.82 239.43,-149.82"/>
<text text-anchor="middle" x="254.43" y="-164.12" font-family="Arial" font-size="14.00" fill="#000000">R 1</text>
</g>
<!-- board.cache_hierarchy.ruby_system.network.l2_switch_0 -->
<g id="node3" class="node">
<title>board.cache_hierarchy.ruby_system.network.l2_switch_0</title>
<path fill="#cce6fc" stroke="#000000" d="M197.74,-83.04C197.74,-83.04 227.74,-83.04 227.74,-83.04 233.74,-83.04 239.74,-89.04 239.74,-95.04 239.74,-95.04 239.74,-107.04 239.74,-107.04 239.74,-113.04 233.74,-119.04 227.74,-119.04 227.74,-119.04 197.74,-119.04 197.74,-119.04 191.74,-119.04 185.74,-113.04 185.74,-107.04 185.74,-107.04 185.74,-95.04 185.74,-95.04 185.74,-89.04 191.74,-83.04 197.74,-83.04"/>
<text text-anchor="middle" x="212.74" y="-97.34" font-family="Arial" font-size="14.00" fill="#000000">R 2</text>
</g>
<!-- board.cache_hierarchy.ruby_system.network.l1_switch_0&#45;&#45;board.cache_hierarchy.ruby_system.network.l2_switch_0 -->
<g id="edge1" class="edge">
<title>board.cache_hierarchy.ruby_system.network.l1_switch_0&#45;&#45;board.cache_hierarchy.ruby_system.network.l2_switch_0</title>
<path fill="none" stroke="#042d50" d="M243.04,-149.57C238.9,-142.95 234.14,-135.31 229.63,-128.09"/>
<polygon fill="#042d50" stroke="#042d50" points="232.39,-125.9 224.12,-119.27 226.45,-129.6 232.39,-125.9"/>
</g>
<!-- board.cache_hierarchy.ruby_system.network.l2_switch_0&#45;&#45;board.cache_hierarchy.ruby_system.network.xbar -->
<g id="edge2" class="edge">
<title>board.cache_hierarchy.ruby_system.network.l2_switch_0&#45;&#45;board.cache_hierarchy.ruby_system.network.xbar</title>
<path fill="none" stroke="#042d50" d="M185.54,-96.67C180.43,-95.85 175.02,-94.97 169.67,-94.11"/>
<polygon fill="#042d50" stroke="#042d50" points="169.99,-90.62 159.57,-92.49 168.88,-97.53 169.99,-90.62"/>
</g>
<!-- board.cache_hierarchy.ruby_system.l1_controllers1 -->
<g id="node4" class="node">
<title>board.cache_hierarchy.ruby_system.l1_controllers1</title>
<path fill="#e5bcd0" stroke="#000000" d="M257.02,-210.56C257.02,-210.56 337.02,-210.56 337.02,-210.56 343.02,-210.56 349.02,-216.56 349.02,-222.56 349.02,-222.56 349.02,-234.56 349.02,-234.56 349.02,-240.56 343.02,-246.56 337.02,-246.56 337.02,-246.56 257.02,-246.56 257.02,-246.56 251.02,-246.56 245.02,-240.56 245.02,-234.56 245.02,-234.56 245.02,-222.56 245.02,-222.56 245.02,-216.56 251.02,-210.56 257.02,-210.56"/>
<text text-anchor="middle" x="297.02" y="-224.86" font-family="Arial" font-size="14.00" fill="#000000">l1_controllers1</text>
</g>
<!-- board.cache_hierarchy.ruby_system.l1_controllers1&#45;&#45;board.cache_hierarchy.ruby_system.network.l1_switch_0 -->
<g id="edge3" class="edge">
<title>board.cache_hierarchy.ruby_system.l1_controllers1&#45;&#45;board.cache_hierarchy.ruby_system.network.l1_switch_0</title>
<path fill="none" stroke="#381526" d="M278.44,-202.07C276.67,-199.53 274.86,-196.96 273.08,-194.42"/>
<polygon fill="#381526" stroke="#381526" points="275.63,-204.16 284.24,-210.34 281.37,-200.14 275.63,-204.16"/>
<polygon fill="#381526" stroke="#381526" points="275.81,-192.21 267.2,-186.03 270.07,-196.23 275.81,-192.21"/>
</g>
<!-- board.cache_hierarchy.ruby_system.l2_controllers -->
<g id="node5" class="node">
<title>board.cache_hierarchy.ruby_system.l2_controllers</title>
<path fill="#e5bcd0" stroke="#000000" d="M228.32,-22.01C228.32,-22.01 301.32,-22.01 301.32,-22.01 307.32,-22.01 313.32,-28.01 313.32,-34.01 313.32,-34.01 313.32,-46.01 313.32,-46.01 313.32,-52.01 307.32,-58.01 301.32,-58.01 301.32,-58.01 228.32,-58.01 228.32,-58.01 222.32,-58.01 216.32,-52.01 216.32,-46.01 216.32,-46.01 216.32,-34.01 216.32,-34.01 216.32,-28.01 222.32,-22.01 228.32,-22.01"/>
<text text-anchor="middle" x="264.82" y="-36.31" font-family="Arial" font-size="14.00" fill="#000000">l2_controllers</text>
</g>
<!-- board.cache_hierarchy.ruby_system.l2_controllers&#45;&#45;board.cache_hierarchy.ruby_system.network.l2_switch_0 -->
<g id="edge4" class="edge">
<title>board.cache_hierarchy.ruby_system.l2_controllers&#45;&#45;board.cache_hierarchy.ruby_system.network.l2_switch_0</title>
<path fill="none" stroke="#381526" d="M242.44,-66.24C239.99,-69.11 237.5,-72.02 235.06,-74.89"/>
<polygon fill="#381526" stroke="#381526" points="245.36,-68.2 249.19,-58.32 240.04,-63.66 245.36,-68.2"/>
<polygon fill="#381526" stroke="#381526" points="232.18,-72.86 228.36,-82.74 237.51,-77.41 232.18,-72.86"/>
</g>
<!-- board.cache_hierarchy.ruby_system.directory_controllers -->
<g id="node6" class="node">
<title>board.cache_hierarchy.ruby_system.directory_controllers</title>
<path fill="#e5bcd0" stroke="#000000" d="M12,-117.27C12,-117.27 126,-117.27 126,-117.27 132,-117.27 138,-123.27 138,-129.27 138,-129.27 138,-141.27 138,-141.27 138,-147.27 132,-153.27 126,-153.27 126,-153.27 12,-153.27 12,-153.27 6,-153.27 0,-147.27 0,-141.27 0,-141.27 0,-129.27 0,-129.27 0,-123.27 6,-117.27 12,-117.27"/>
<text text-anchor="middle" x="69" y="-131.57" font-family="Arial" font-size="14.00" fill="#000000">directory_controllers</text>
</g>
<!-- board.cache_hierarchy.ruby_system.directory_controllers&#45;&#45;board.cache_hierarchy.ruby_system.network.xbar -->
<g id="edge5" class="edge">
<title>board.cache_hierarchy.ruby_system.directory_controllers&#45;&#45;board.cache_hierarchy.ruby_system.network.xbar</title>
<path fill="none" stroke="#381526" d="M101.48,-111.11C101.61,-111.01 101.75,-110.91 101.88,-110.81"/>
<polygon fill="#381526" stroke="#381526" points="99.26,-108.4 93.33,-117.18 103.44,-114.02 99.26,-108.4"/>
<polygon fill="#381526" stroke="#381526" points="101.88,-115.18 107.81,-106.4 97.7,-109.56 101.88,-115.18"/>
</g>
<!-- board.cache_hierarchy.ruby_system.l1_controllers0 -->
<g id="node7" class="node">
<title>board.cache_hierarchy.ruby_system.l1_controllers0</title>
<path fill="#e5bcd0" stroke="#000000" d="M54.94,-0.5C54.94,-0.5 134.94,-0.5 134.94,-0.5 140.94,-0.5 146.94,-6.5 146.94,-12.5 146.94,-12.5 146.94,-24.5 146.94,-24.5 146.94,-30.5 140.94,-36.5 134.94,-36.5 134.94,-36.5 54.94,-36.5 54.94,-36.5 48.94,-36.5 42.94,-30.5 42.94,-24.5 42.94,-24.5 42.94,-12.5 42.94,-12.5 42.94,-6.5 48.94,-0.5 54.94,-0.5"/>
<text text-anchor="middle" x="94.94" y="-14.8" font-family="Arial" font-size="14.00" fill="#000000">l1_controllers0</text>
</g>
<!-- board.cache_hierarchy.ruby_system.l1_controllers0&#45;&#45;board.cache_hierarchy.ruby_system.network.xbar -->
<g id="edge6" class="edge">
<title>board.cache_hierarchy.ruby_system.l1_controllers0&#45;&#45;board.cache_hierarchy.ruby_system.network.xbar</title>
<path fill="none" stroke="#381526" d="M109.64,-45.83C112.27,-50.71 115,-55.79 117.63,-60.68"/>
<polygon fill="#381526" stroke="#381526" points="112.6,-43.94 104.78,-36.79 106.43,-47.26 112.6,-43.94"/>
<polygon fill="#381526" stroke="#381526" points="114.67,-62.56 122.49,-69.71 120.83,-59.24 114.67,-62.56"/>
</g>
</g>
</svg>
